<svg width="27" height="29" viewBox="0 0 27 29" fill="none" xmlns="http://www.w3.org/2000/svg">
<path d="M4.26152 18.7753L13.3708 27.8846L13.3467 18.6104C13.3556 21.9966 9.2738 23.7119 6.86121 21.3358L4.26152 18.7753Z" fill="black"/>
<path d="M13.3708 27.8846L19.4436 21.8117L22.4801 18.7753L19.9057 21.3311C17.4811 23.7383 13.3556 22.027 13.3467 18.6104L13.3708 27.8846Z" fill="black"/>
<path d="M13.3708 1.37376L13.3467 18.6104M13.3708 27.8846L19.4436 21.8117L22.4801 18.7753M13.3708 27.8846L4.26152 18.7753M13.3708 27.8846L13.3467 18.6104M25.5165 15.7389L22.4801 18.7753M1.2251 15.7389L4.26152 18.7753M22.4801 18.7753L19.9057 21.3311C17.4811 23.7383 13.3556 22.027 13.3467 18.6104V18.6104M4.26152 18.7753L6.86121 21.3358C9.2738 23.7119 13.3556 21.9966 13.3467 18.6104V18.6104" stroke="black" stroke-width="2" stroke-linecap="round" stroke-linejoin="round"/>
</svg>
