<svg width="291" height="291" viewBox="0 0 291 291" fill="none" xmlns="http://www.w3.org/2000/svg">
<path d="M257.616 151.513C257.665 150.661 257.819 149.858 258.076 149.103C258.354 148.372 258.713 147.698 259.155 147.082C259.618 146.468 260.15 145.943 260.753 145.508L262.498 147.468C261.785 147.983 261.236 148.592 260.854 149.296C260.492 150.002 260.286 150.802 260.234 151.697C260.182 152.591 260.291 153.292 260.561 153.799C260.852 154.307 261.274 154.578 261.828 154.61C262.382 154.642 262.819 154.464 263.141 154.077C263.483 153.712 263.767 153.226 263.995 152.62C264.243 152.014 264.484 151.366 264.716 150.674C264.969 150.005 265.273 149.371 265.628 148.772C265.983 148.173 266.449 147.687 267.027 147.314C267.603 146.963 268.349 146.814 269.264 146.867C270.18 146.92 270.955 147.189 271.589 147.675C272.245 148.161 272.731 148.809 273.047 149.618C273.363 150.449 273.488 151.428 273.422 152.557C273.353 153.75 273.079 154.791 272.6 155.683C272.141 156.596 271.479 157.327 270.614 157.875L268.868 155.915C269.447 155.521 269.903 155.013 270.239 154.392C270.573 153.791 270.762 153.097 270.808 152.309C270.856 151.479 270.744 150.831 270.472 150.367C270.22 149.925 269.838 149.689 269.327 149.659C268.816 149.629 268.411 149.798 268.112 150.166C267.812 150.533 267.549 151.02 267.322 151.626C267.093 152.254 266.852 152.903 266.6 153.572C266.369 154.242 266.065 154.877 265.688 155.474C265.312 156.072 264.825 156.546 264.228 156.896C263.629 157.268 262.861 157.426 261.924 157.372C260.497 157.289 259.398 156.713 258.627 155.642C257.854 154.593 257.517 153.217 257.616 151.513Z" fill="#516682"/>
<path d="M255.68 167.062C255.969 165.575 256.565 164.3 257.468 163.237C258.391 162.178 259.506 161.417 260.814 160.954C262.121 160.492 263.518 160.405 265.005 160.695C266.47 160.98 267.724 161.572 268.767 162.47C269.805 163.39 270.547 164.49 270.992 165.773C271.455 167.08 271.546 168.456 271.265 169.901C270.995 171.283 270.445 172.436 269.613 173.361C268.777 174.306 267.747 174.964 266.523 175.335C265.295 175.726 263.979 175.785 262.576 175.512C262.367 175.471 262.138 175.415 261.891 175.346C261.665 175.28 261.401 175.185 261.099 175.061L263.551 162.465L265.907 162.924L263.748 174.012L263.039 172.798C264.044 172.994 264.927 172.981 265.687 172.759C266.469 172.542 267.111 172.146 267.614 171.57C268.139 170.998 268.49 170.252 268.67 169.33C268.857 168.367 268.813 167.478 268.537 166.664C268.261 165.849 267.785 165.17 267.108 164.625C266.432 164.08 265.581 163.708 264.555 163.508C263.508 163.305 262.545 163.335 261.668 163.598C260.812 163.866 260.088 164.345 259.498 165.034C258.928 165.727 258.545 166.577 258.35 167.582C258.187 168.419 258.184 169.212 258.343 169.96C258.498 170.729 258.819 171.422 259.308 172.039L257.1 173.5C256.401 172.625 255.933 171.621 255.697 170.488C255.457 169.377 255.452 168.235 255.68 167.062Z" fill="#516682"/>
<path d="M253.437 177.574L275.221 184.462L274.353 187.208L252.568 180.319L253.437 177.574Z" fill="#516682"/>
<path d="M249.851 187.771L265.942 194.577C266.984 195.018 267.792 195.626 268.367 196.402C268.962 197.186 269.319 198.067 269.439 199.044C269.55 200.041 269.381 201.069 268.932 202.13C268.591 202.936 268.159 203.575 267.635 204.048C267.11 204.522 266.479 204.891 265.741 205.158L264.767 202.696C265.15 202.557 265.477 202.36 265.747 202.104C266.037 201.856 266.278 201.506 266.469 201.054C266.826 200.209 266.859 199.447 266.567 198.768C266.267 198.108 265.685 197.595 264.821 197.23L248.729 190.423L249.851 187.771ZM262.892 189.222L265.308 190.244L260.846 200.795L258.429 199.773L262.892 189.222Z" fill="#516682"/>
<path d="M251.502 200.535L253.864 201.884L248.643 211.026L246.281 209.677L251.502 200.535Z" fill="#516682"/>
<path d="M235.492 212.553C236.004 211.87 236.575 211.286 237.207 210.8C237.843 210.343 238.515 209.98 239.223 209.711C239.948 209.455 240.682 209.313 241.425 209.283L241.796 211.881C240.917 211.915 240.123 212.12 239.415 212.495C238.724 212.884 238.109 213.436 237.572 214.153C237.034 214.87 236.738 215.514 236.682 216.086C236.644 216.67 236.846 217.129 237.29 217.462C237.734 217.795 238.197 217.889 238.679 217.744C239.165 217.628 239.671 217.381 240.196 217.001C240.738 216.634 241.297 216.227 241.873 215.779C242.453 215.361 243.057 215 243.684 214.697C244.311 214.394 244.968 214.247 245.655 214.255C246.329 214.281 247.033 214.569 247.767 215.119C248.501 215.67 248.998 216.323 249.258 217.078C249.535 217.846 249.582 218.654 249.399 219.503C249.203 220.37 248.765 221.255 248.087 222.159C247.37 223.115 246.566 223.832 245.674 224.31C244.787 224.818 243.831 225.061 242.807 225.039L242.436 222.441C243.136 222.433 243.797 222.262 244.42 221.929C245.03 221.613 245.572 221.14 246.045 220.508C246.545 219.843 246.809 219.241 246.839 218.703C246.873 218.196 246.685 217.788 246.276 217.481C245.866 217.174 245.435 217.091 244.983 217.231C244.531 217.372 244.042 217.633 243.517 218.012C242.98 218.409 242.421 218.817 241.841 219.235C241.277 219.666 240.674 220.026 240.029 220.316C239.385 220.606 238.717 220.732 238.026 220.694C237.322 220.673 236.595 220.38 235.844 219.817C234.7 218.96 234.103 217.872 234.052 216.553C233.988 215.252 234.468 213.918 235.492 212.553Z" fill="#516682"/>
<path d="M228.726 221.279L244.467 236.023L242.498 238.125L226.757 223.381L228.726 221.279ZM240.464 227.143L242.379 228.937L235.291 236.504L233.376 234.71L240.464 227.143Z" fill="#516682"/>
<path d="M216.394 232.523C217.469 231.648 218.661 231.117 219.968 230.933C221.29 230.764 222.584 230.934 223.851 231.443C225.102 231.965 226.199 232.805 227.142 233.963C228.085 235.12 228.686 236.365 228.944 237.695C229.186 239.039 229.099 240.334 228.684 241.581C228.252 242.841 227.49 243.915 226.398 244.804C225.505 245.532 224.556 245.988 223.552 246.174C222.544 246.389 221.556 246.342 220.587 246.03C219.631 245.736 218.778 245.178 218.028 244.359L215.138 240.811C214.5 239.927 214.127 238.979 214.018 237.967C213.893 236.969 214.031 235.99 214.432 235.03C214.83 234.1 215.484 233.265 216.394 232.523ZM217.74 234.935C216.632 235.838 216.042 236.938 215.97 238.235C215.911 239.548 216.361 240.792 217.317 241.966C217.977 242.777 218.707 243.351 219.507 243.691C220.303 244.06 221.117 244.181 221.949 244.054C222.794 243.943 223.589 243.585 224.333 242.978C225.077 242.372 225.597 241.66 225.893 240.841C226.173 240.035 226.229 239.192 226.061 238.31C225.89 237.459 225.488 236.644 224.855 235.867C224.208 235.073 223.478 234.498 222.666 234.142C221.85 233.816 221.011 233.715 220.149 233.84C219.287 233.964 218.484 234.329 217.74 234.935ZM212.676 235.965L215.263 239.141L217.186 242.362L219.932 244.872L222.276 247.75L220.019 249.589L210.419 237.804L212.676 235.965Z" fill="#516682"/>
<path d="M207.844 239.388L215.719 252.389L213.256 253.881L205.381 240.88L207.844 239.388ZM209.874 248.298L211.053 248.145C212.059 249.805 212.477 251.36 212.307 252.81C212.138 254.259 211.332 255.42 209.891 256.294C209.234 256.692 208.569 256.932 207.896 257.015C207.235 257.117 206.515 257.041 205.739 256.789L206.342 254.141C206.793 254.267 207.221 254.294 207.627 254.223C208.032 254.152 208.454 253.984 208.892 253.718C209.805 253.166 210.376 252.421 210.606 251.483C210.836 250.546 210.592 249.484 209.874 248.298Z" fill="#516682"/>
<path d="M194.077 247.139L203.14 266.71L200.527 267.92L191.463 248.349L194.077 247.139ZM202.759 256.977L203.861 259.358L194.453 263.715L193.351 261.334L202.759 256.977Z" fill="#516682"/>
<path d="M184.933 251.056L190.059 265.366L187.347 266.337L182.222 252.027L184.933 251.056ZM189.728 268.713C190.23 268.533 190.7 268.547 191.136 268.753C191.58 268.979 191.891 269.343 192.071 269.846C192.244 270.328 192.227 270.787 192.021 271.223C191.822 271.68 191.471 271.998 190.969 272.178C190.467 272.358 189.994 272.334 189.55 272.108C189.114 271.902 188.81 271.558 188.637 271.076C188.457 270.574 188.467 270.094 188.666 269.638C188.872 269.201 189.226 268.893 189.728 268.713Z" fill="#516682"/>
<path d="M167.487 256.102L169.512 264.731C169.775 265.853 170.345 266.694 171.222 267.256C172.098 267.817 173.097 267.966 174.219 267.703C174.967 267.527 175.592 267.205 176.096 266.737C176.599 266.268 176.949 265.704 177.145 265.044C177.341 264.385 177.351 263.681 177.176 262.933L178.482 263.317C178.745 264.439 178.73 265.494 178.436 266.483C178.142 267.473 177.607 268.321 176.831 269.029C176.06 269.758 175.113 270.254 173.992 270.517C172.87 270.78 171.818 270.731 170.835 270.37C169.831 270.014 168.973 269.438 168.26 268.641C167.552 267.865 167.078 266.968 166.84 265.95L164.683 256.759L167.487 256.102ZM177.955 253.646L181.427 268.444L178.623 269.102L175.151 254.304L177.955 253.646Z" fill="#516682"/>
<path d="M153.384 251.25C154.937 251.13 156.341 251.31 157.598 251.791C158.834 252.273 159.853 253.007 160.657 253.994L158.952 256.019C158.274 255.28 157.495 254.741 156.612 254.403C155.729 254.043 154.702 253.908 153.532 253.999C151.979 254.119 150.789 254.628 149.959 255.527C149.107 256.406 148.735 257.537 148.841 258.919L149.132 262.684L148.886 266.137L149.658 269.48L149.966 273.468L147.095 273.69L145.97 259.141C145.858 257.695 146.101 256.403 146.697 255.265C147.273 254.13 148.143 253.207 149.308 252.496C150.451 251.787 151.81 251.372 153.384 251.25ZM153.919 258.174C155.302 258.067 156.571 258.3 157.728 258.874C158.864 259.45 159.795 260.287 160.522 261.386C161.251 262.507 161.671 263.79 161.783 265.236C161.895 266.683 161.675 267.994 161.124 269.171C160.575 270.369 159.783 271.339 158.749 272.083C157.696 272.849 156.478 273.285 155.095 273.392C153.904 273.484 152.833 273.332 151.883 272.934C150.932 272.537 150.158 271.934 149.56 271.124C148.943 270.337 148.57 269.382 148.44 268.258L148.129 264.238C148.108 263.127 148.34 262.125 148.828 261.231C149.295 260.36 149.968 259.656 150.847 259.117C151.725 258.578 152.749 258.264 153.919 258.174ZM153.554 260.93C152.619 261.002 151.815 261.268 151.145 261.726C150.453 262.186 149.943 262.792 149.616 263.545C149.291 264.319 149.166 265.195 149.242 266.174C149.317 267.152 149.585 267.987 150.045 268.679C150.486 269.394 151.072 269.927 151.806 270.276C152.54 270.648 153.386 270.796 154.343 270.722C155.301 270.648 156.124 270.37 156.815 269.889C157.507 269.429 158.036 268.81 158.404 268.033C158.753 267.279 158.89 266.423 158.816 265.466C158.742 264.509 158.474 263.673 158.012 262.96C157.529 262.249 156.91 261.708 156.154 261.339C155.378 260.992 154.512 260.856 153.554 260.93Z" fill="#516682"/>
<path d="M111.853 252.955C113.283 253.384 114.48 254.11 115.442 255.133C116.385 256.151 117.022 257.333 117.353 258.679C117.658 260.04 117.599 261.425 117.177 262.835C116.748 264.266 116.035 265.455 115.038 266.404C114.021 267.346 112.842 267.973 111.502 268.284C110.135 268.609 108.736 268.557 107.306 268.129C106.182 267.792 105.204 267.265 104.372 266.548C103.534 265.851 102.887 265.001 102.431 263.995L104.821 262.707C105.112 263.373 105.544 263.937 106.118 264.399C106.666 264.875 107.328 265.229 108.105 265.462C109.024 265.737 109.906 265.768 110.75 265.553C111.588 265.359 112.321 264.955 112.95 264.342C113.579 263.728 114.038 262.941 114.326 261.981C114.614 261.021 114.663 260.111 114.475 259.253C114.287 258.395 113.899 257.644 113.313 257.001C112.726 256.357 111.973 255.898 111.053 255.622C110.277 255.389 109.532 255.311 108.819 255.387C108.079 255.477 107.395 255.717 106.766 256.108L105.508 253.726C106.415 253.152 107.424 252.797 108.533 252.662C109.622 252.521 110.729 252.618 111.853 252.955Z" fill="#516682"/>
<path d="M103.583 250.495L97.4013 264.381L94.7702 263.21L100.951 249.324L103.583 250.495ZM97.4249 257.246L98.2237 258.127C97.4342 259.901 96.3959 261.132 95.1089 261.82C93.8219 262.508 92.4085 262.509 90.8688 261.824C90.1672 261.512 89.5902 261.103 89.1377 260.598C88.6766 260.113 88.3283 259.479 88.0926 258.697L90.6113 257.681C90.7648 258.123 90.9866 258.49 91.2767 258.783C91.5668 259.076 91.9457 259.326 92.4134 259.534C93.3879 259.968 94.3258 260.012 95.2271 259.666C96.1284 259.32 96.861 258.513 97.4249 257.246Z" fill="#516682"/>
<path d="M85.505 240.902C86.7918 241.701 87.7717 242.711 88.4447 243.933C89.1064 245.172 89.4212 246.485 89.3891 247.872C89.357 249.258 88.9415 250.594 88.1425 251.881C87.3548 253.15 86.3559 254.112 85.1457 254.766C83.9174 255.41 82.6249 255.712 81.2679 255.673C79.8816 255.641 78.5632 255.237 77.3127 254.461C76.1165 253.718 75.2341 252.793 74.6655 251.687C74.0788 250.569 73.8299 249.373 73.9188 248.097C73.9897 246.81 74.402 245.559 75.156 244.345C75.2685 244.164 75.4014 243.97 75.5545 243.764C75.6965 243.576 75.879 243.363 76.1022 243.125L87.0037 249.893L85.7377 251.932L76.1411 245.974L77.5278 245.742C76.9876 246.612 76.6859 247.442 76.6227 248.231C76.5482 249.039 76.6905 249.78 77.0498 250.455C77.3979 251.149 77.9706 251.743 78.7681 252.238C79.6018 252.756 80.4483 253.03 81.3077 253.061C82.1671 253.093 82.9715 252.889 83.721 252.451C84.4705 252.012 85.1209 251.349 85.6723 250.46C86.235 249.554 86.5489 248.644 86.614 247.73C86.6679 246.835 86.4777 245.989 86.0435 245.192C85.5979 244.413 84.9402 243.753 84.0703 243.213C83.3453 242.763 82.605 242.479 81.8494 242.361C81.0756 242.233 80.3137 242.287 79.5636 242.524L78.9828 239.941C80.0491 239.599 81.1535 239.519 82.296 239.701C83.4204 239.872 84.4901 240.272 85.505 240.902Z" fill="#516682"/>
<path d="M71.6061 230.667C72.6553 231.573 73.3844 232.655 73.7934 233.91C74.1886 235.182 74.2457 236.487 73.9649 237.823C73.668 239.145 73.0313 240.371 72.0548 241.501C71.0783 242.631 69.9574 243.439 68.692 243.924C67.4105 244.395 66.1199 244.535 64.8202 244.342C63.5044 244.135 62.3139 243.572 61.2486 242.651C60.377 241.898 59.7627 241.043 59.4056 240.086C59.0184 239.131 58.894 238.149 59.0323 237.141C59.1567 236.148 59.5574 235.212 60.2343 234.331L63.2265 230.868C63.9863 230.087 64.8551 229.555 65.8327 229.272C66.7942 228.975 67.7824 228.941 68.7973 229.17C69.7821 229.4 70.7184 229.899 71.6061 230.667ZM69.4644 232.411C68.383 231.476 67.1975 231.086 65.908 231.24C64.6046 231.411 63.4576 232.069 62.4672 233.215C61.7837 234.006 61.3442 234.825 61.1487 235.671C60.9231 236.519 60.9452 237.342 61.2149 238.139C61.4708 238.952 61.9619 239.672 62.6882 240.3C63.4145 240.928 64.2066 241.316 65.0645 241.466C65.9062 241.601 66.7466 241.51 67.5855 241.191C68.3944 240.875 69.1266 240.338 69.7822 239.579C70.4518 238.805 70.8913 237.986 71.1008 237.124C71.2802 236.264 71.2338 235.42 70.9619 234.593C70.6899 233.766 70.1907 233.038 69.4644 232.411ZM67.5715 227.603L64.8932 230.702L62.0544 233.154L60.0597 236.294L57.6325 239.103L55.4293 237.199L65.3683 225.699L67.5715 227.603Z" fill="#516682"/>
<path d="M61.9048 221.742L45.7934 236.081L43.8788 233.929L59.9901 219.59L61.9048 221.742ZM54.9996 232.899L53.0394 234.644L46.1466 226.899L48.1067 225.154L54.9996 232.899Z" fill="#516682"/>
<path d="M55.5009 214.137L43.3076 223.213L41.588 220.903L53.7813 211.827L55.5009 214.137ZM40.0092 223.873C40.3276 224.301 40.4518 224.753 40.3818 225.231C40.2947 225.721 40.0372 226.126 39.6094 226.444C39.1986 226.75 38.7545 226.868 38.2769 226.798C37.7821 226.74 37.3756 226.498 37.0571 226.07C36.7387 225.642 36.623 225.183 36.7101 224.693C36.7802 224.215 37.0205 223.824 37.4312 223.518C37.8591 223.199 38.3204 223.069 38.8151 223.126C39.2927 223.196 39.6907 223.445 40.0092 223.873Z" fill="#516682"/>
<path d="M47.8267 202.789L38.2878 216.527L36.6602 213.771L44.8602 202.423L45.8042 204.021L31.8914 205.699L30.3289 203.054L46.9641 201.329L47.8267 202.789Z" fill="#516682"/>
<path d="M40.5584 187.375C41.1275 188.779 41.3242 190.172 41.1484 191.556C40.9529 192.947 40.4339 194.193 39.5912 195.295C38.7486 196.396 37.6255 197.231 36.2218 197.8C34.8379 198.361 33.4641 198.55 32.1005 198.366C30.7288 198.163 29.5063 197.646 28.4328 196.815C27.3315 195.972 26.5043 194.869 25.9512 193.505C25.4221 192.2 25.2538 190.933 25.4461 189.704C25.6304 188.455 26.1342 187.342 26.9576 186.363C27.773 185.365 28.8429 184.597 30.1675 184.06C30.3652 183.98 30.5867 183.902 30.832 183.825C31.0575 183.757 31.3305 183.692 31.6511 183.631L36.4726 195.523L34.2485 196.425L30.0041 185.957L31.2609 186.587C30.3119 186.971 29.5794 187.464 29.0632 188.065C28.5273 188.673 28.2057 189.356 28.0983 190.113C27.9711 190.879 28.0839 191.696 28.4366 192.566C28.8053 193.475 29.3277 194.196 30.0036 194.728C30.6796 195.259 31.4496 195.569 32.3136 195.656C33.1776 195.743 34.094 195.59 35.0627 195.197C36.0512 194.796 36.841 194.246 37.4319 193.546C38.0031 192.854 38.348 192.058 38.4666 191.158C38.5654 190.266 38.4224 189.346 38.0377 188.397C37.717 187.606 37.2861 186.941 36.7448 186.4C36.1955 185.84 35.5478 185.435 34.8019 185.185L35.8542 182.756C36.9175 183.108 37.8572 183.693 38.6731 184.514C39.4811 185.314 40.1095 186.268 40.5584 187.375Z" fill="#516682"/>
<path d="M32.4186 145.288C32.4319 146.44 32.2094 147.488 31.7509 148.432C31.2709 149.355 30.6075 150.099 29.7607 150.663C28.9138 151.228 27.9468 151.548 26.8596 151.625L22.2839 151.678C21.1739 151.627 20.1997 151.329 19.3613 150.784C18.5014 150.218 17.8315 149.479 17.3515 148.567C16.85 147.634 16.5927 146.602 16.5796 145.472C16.5636 144.085 16.9011 142.833 17.5922 141.716C18.2831 140.577 19.2221 139.681 20.4093 139.027C21.5964 138.373 22.9367 138.038 24.4299 138.02C25.9231 138.003 27.2707 138.307 28.4727 138.934C29.6747 139.56 30.6343 140.434 31.3513 141.556C32.0468 142.658 32.4025 143.902 32.4186 145.288ZM29.7043 145.8C29.6932 144.84 29.4595 144 29.0031 143.28C28.5467 142.56 27.9321 141.991 27.1592 141.573C26.365 141.155 25.4559 140.953 24.432 140.964C23.4294 140.976 22.5359 141.2 21.7516 141.636C20.9672 142.071 20.3659 142.654 19.9477 143.385C19.5081 144.115 19.2938 144.95 19.3047 145.888C19.3158 146.848 19.5495 147.688 20.0059 148.408C20.4409 149.129 21.0554 149.687 21.8494 150.083C22.6434 150.479 23.5523 150.671 24.5763 150.659C25.5789 150.648 26.4726 150.445 27.2574 150.052C28.0207 149.638 28.6221 149.066 29.0616 148.335C29.501 147.584 29.7152 146.738 29.7043 145.8ZM38.5588 153.218L16.9923 153.467L16.9589 150.588L20.9586 150.541L24.6447 151.043L28.3502 150.456L38.5255 150.338L38.5588 153.218Z" fill="#516682"/>
<path d="M32.4121 135.41L17.3424 133.425L17.7186 130.569L32.7883 132.555L32.4121 135.41ZM24.1906 131.422L23.5726 132.438C21.6479 132.184 20.173 131.538 19.148 130.499C18.1229 129.461 17.7204 128.106 17.9405 126.435C18.0409 125.674 18.2689 125.004 18.6247 124.427C18.9593 123.847 19.4681 123.333 20.1512 122.885L21.8398 125.012C21.4596 125.285 21.1704 125.602 20.9722 125.963C20.774 126.324 20.6414 126.759 20.5745 127.266C20.4352 128.324 20.6594 129.235 21.247 130.001C21.8346 130.767 22.8159 131.241 24.1906 131.422Z" fill="#516682"/>
<path d="M36.686 114.444C36.2845 115.882 35.5841 117.082 34.5848 118.043C33.5855 119.005 32.4159 119.664 31.076 120.021C29.7155 120.372 28.316 120.347 26.8777 119.945C25.4599 119.549 24.2806 118.855 23.3397 117.861C22.3783 116.862 21.7192 115.692 21.3624 114.352C21.0055 113.012 21.0278 111.623 21.4293 110.185C21.8251 108.767 22.5226 107.577 23.5219 106.616C24.5064 105.628 25.6686 104.956 27.0086 104.599C28.3485 104.242 29.7274 104.262 31.1452 104.658C32.5836 105.059 33.7937 105.762 34.7756 106.767C35.737 107.767 36.3933 108.947 36.7444 110.307C37.1013 111.647 37.0818 113.026 36.686 114.444ZM34.0046 113.695C34.2627 112.771 34.2764 111.888 34.0456 111.049C33.8149 110.209 33.387 109.481 32.762 108.863C32.1164 108.24 31.3108 107.794 30.3451 107.524C29.3999 107.26 28.4972 107.241 27.637 107.466C26.7826 107.67 26.0495 108.075 25.4378 108.679C24.8112 109.257 24.3689 110.009 24.1108 110.933C23.8527 111.858 23.839 112.74 24.0698 113.58C24.28 114.414 24.6975 115.139 25.3226 115.757C25.9476 116.374 26.7326 116.815 27.6778 117.079C28.6436 117.348 29.564 117.384 30.4389 117.185C31.2934 116.981 32.0367 116.579 32.669 115.98C33.3012 115.382 33.7464 114.62 34.0046 113.695Z" fill="#516682"/>
<path d="M43.3268 96.8202C42.8428 97.8655 42.1905 98.7155 41.3702 99.37C40.5395 99.9962 39.6204 100.382 38.613 100.526C37.6056 100.671 36.5948 100.544 35.5806 100.145L31.4283 98.2219C30.4485 97.6976 29.6977 97.0091 29.1758 96.1561C28.6435 95.2748 28.3572 94.3194 28.3168 93.2898C28.266 92.2318 28.4782 91.1898 28.9533 90.1638C29.536 88.9056 30.3799 87.921 31.4848 87.2102C32.5988 86.4801 33.8323 86.0756 35.1853 85.9969C36.5383 85.9182 37.8923 86.1926 39.2474 86.8201C40.6025 87.4476 41.6876 88.3028 42.5027 89.3856C43.3179 90.4683 43.8073 91.6706 43.971 92.9925C44.1243 94.286 43.9096 95.5619 43.3268 96.8202ZM40.657 96.1127C41.0604 95.2416 41.2112 94.3828 41.1095 93.5364C41.0078 92.6899 40.6981 91.9118 40.1805 91.2019C39.6435 90.483 38.9105 89.9084 37.9813 89.4781C37.0714 89.0568 36.1687 88.8738 35.2732 88.9293C34.3776 88.9848 33.5838 89.252 32.8919 89.7308C32.1806 90.2008 31.6277 90.8616 31.2332 91.7134C30.8298 92.5845 30.679 93.4433 30.7807 94.2897C30.8631 95.1272 31.1772 95.8957 31.7231 96.5952C32.2691 97.2947 33.0066 97.8596 33.9358 98.2899C34.8457 98.7113 35.7394 98.9136 36.617 98.8968C37.4842 98.8517 38.2735 98.5942 38.9848 98.1243C39.7051 97.635 40.2625 96.9645 40.657 96.1127ZM39.6747 103.945L18.9419 94.3438L20.1522 91.7305L30.4605 96.5042L33.5712 98.5442L37.1681 99.6105L40.8849 101.332L39.6747 103.945Z" fill="#516682"/>
<path d="M47.5023 88.2332L28.0036 76.324L29.5047 73.8662L49.0035 85.7753L47.5023 88.2332Z" fill="#516682"/>
<path d="M56.1632 76.0653C55.2325 77.2603 54.1242 78.1277 52.8384 78.6676C51.5358 79.1943 50.1969 79.3683 48.8218 79.1896C47.4467 79.0109 46.1617 78.4562 44.9667 77.5255C43.7886 76.6079 42.938 75.5127 42.415 74.24C41.9051 72.9505 41.7413 71.6332 41.9237 70.288C42.1024 68.9129 42.6441 67.6447 43.5486 66.4834C44.4138 65.3726 45.4265 64.593 46.5869 64.1448C47.7604 63.6797 48.9767 63.5589 50.2357 63.7824C51.5079 63.9891 52.7078 64.5316 53.8355 65.4099C54.0038 65.541 54.1823 65.6936 54.3712 65.8678C54.5432 66.0288 54.7358 66.2329 54.9489 66.48L47.0639 76.6036L45.1704 75.1288L52.1117 66.217L52.1949 67.6204C51.387 66.9912 50.594 66.6033 49.8157 66.4568C49.0206 66.2972 48.2684 66.3603 47.5591 66.6461C46.8329 66.9188 46.1814 67.4254 45.6046 68.166C45.0016 68.9402 44.639 69.7529 44.5168 70.6041C44.3946 71.4554 44.5119 72.2768 44.8688 73.0686C45.2256 73.8603 45.8163 74.5773 46.641 75.2196C47.4826 75.8751 48.3542 76.2836 49.2559 76.4451C50.1408 76.5935 51.0025 76.494 51.841 76.1466C52.6626 75.786 53.3881 75.2018 54.0173 74.3939C54.5417 73.7207 54.9023 73.0146 55.0993 72.2757C55.3094 71.5199 55.3361 70.7566 55.1795 69.9856L57.8094 69.6815C58.037 70.7781 57.9997 71.8848 57.6977 73.0016C57.4088 74.1016 56.8973 75.1228 56.1632 76.0653Z" fill="#516682"/>
<path d="M61.376 68.3845L51.3535 56.9569L53.5188 55.0579L63.5412 66.4855L61.376 68.3845ZM69.0986 61.6115L63.043 54.7068C62.2975 53.8567 61.4491 53.4232 60.4978 53.4062C59.5485 53.3591 58.6809 53.6802 57.895 54.3695C57.3657 54.8337 56.991 55.3609 56.7709 55.9512C56.5509 56.5415 56.4884 57.1496 56.5834 57.7757C56.6784 58.4017 56.9721 58.9954 57.4645 59.5568L56.1945 59.9044C55.4349 59.0383 54.9582 58.1227 54.7645 57.1576C54.5867 56.1785 54.6719 55.2241 55.0201 54.2945C55.3541 53.3489 55.9301 52.5174 56.7481 51.8C57.5501 51.0967 58.4265 50.6401 59.3775 50.4303C60.3446 50.2064 61.2939 50.2535 62.2255 50.5715C63.1731 50.8755 64.0337 51.4685 64.8073 52.3507L71.2639 59.7125L69.0986 61.6115ZM76.8213 54.8384L70.7657 47.9337C70.0202 47.0837 69.1718 46.6501 68.2205 46.6332C67.2712 46.5861 66.4116 46.9002 65.6417 47.5754C65.1124 48.0396 64.7297 48.5738 64.4936 49.1782C64.2736 49.7684 64.211 50.3766 64.3061 51.0026C64.4011 51.6287 64.6948 52.2224 65.1871 52.7837L63.5804 53.4268C62.8548 52.5024 62.4263 51.5446 62.2947 50.5534C62.1651 49.532 62.2823 48.5495 62.6465 47.6059C62.9966 46.6462 63.5726 45.8147 64.3746 45.1114C65.2086 44.3799 66.1091 43.9022 67.0762 43.6784C68.0432 43.4545 69.0006 43.4945 69.9481 43.7985C70.9118 44.0884 71.7875 44.6824 72.5752 45.5806L79.0106 52.9183L76.8213 54.8384Z" fill="#516682"/>
<path d="M79.1633 45.1106L77.7627 42.7789L86.7875 37.3576L88.1882 39.6892L79.1633 45.1106Z" fill="#516682"/>
<path d="M99.2129 42.309C98.432 42.6531 97.6472 42.8824 96.8584 42.9968C96.0805 43.0832 95.317 43.07 94.5679 42.9571C93.8102 42.8248 93.1004 42.5897 92.4387 42.2518L93.3886 39.805C94.1715 40.206 94.9636 40.4165 95.765 40.4363C96.5578 40.4367 97.3641 40.2562 98.1841 39.8949C99.004 39.5335 99.5782 39.1173 99.9068 38.6461C100.227 38.1554 100.275 37.6563 100.051 37.1487C99.8275 36.6412 99.47 36.3325 98.9787 36.2226C98.4982 36.0846 97.9362 36.0525 97.2927 36.1263C96.6405 36.1806 95.9536 36.2618 95.232 36.37C94.5212 36.4501 93.8183 36.4684 93.1231 36.4251C92.4279 36.3817 91.7831 36.188 91.1885 35.8439C90.6134 35.4912 90.1409 34.8951 89.771 34.0556C89.4011 33.2162 89.2878 32.4036 89.431 31.6177C89.5657 30.8124 89.9211 30.0846 90.4971 29.4344C91.0927 28.7756 91.9078 28.2183 92.9425 27.7623C94.0357 27.2806 95.0881 27.05 96.0996 27.0705C97.122 27.0629 98.0743 27.3193 98.9564 27.8398L98.0064 30.2866C97.3923 29.9511 96.7322 29.7758 96.0261 29.7605C95.3395 29.7367 94.6351 29.8839 93.9128 30.2022C93.1514 30.5378 92.626 30.9325 92.3365 31.3865C92.0579 31.8123 92.0218 32.2595 92.2283 32.728C92.4347 33.1965 92.7696 33.4803 93.2328 33.5792C93.696 33.6781 94.2494 33.6907 94.893 33.6169C95.5561 33.5345 96.243 33.4533 96.9537 33.3732C97.6558 33.2736 98.3588 33.2553 99.0626 33.3182C99.7663 33.381 100.41 33.5986 100.994 33.9708C101.597 34.3345 102.088 34.9458 102.466 35.8047C103.043 37.1127 103.03 38.3538 102.429 39.5281C101.847 40.6938 100.775 41.6207 99.2129 42.309Z" fill="#516682"/>
<path d="M114.409 36.8032C112.972 37.2102 111.583 37.2378 110.242 36.886C108.901 36.5342 107.729 35.8795 106.726 34.9219C105.717 33.9438 105.009 32.7364 104.602 31.2996C104.201 29.8833 104.179 28.5147 104.537 27.194C104.889 25.8527 105.543 24.6805 106.501 23.6776C107.459 22.6747 108.656 21.9698 110.093 21.5628C111.509 21.1616 112.888 21.137 114.229 21.4887C115.585 21.8142 116.764 22.4557 117.767 23.4133C118.77 24.3709 119.472 25.5578 119.873 26.9741C120.28 28.4109 120.311 29.8103 119.965 31.1721C119.613 32.5134 118.948 33.6884 117.97 34.6971C117.013 35.7001 115.826 36.4021 114.409 36.8032ZM113.651 34.1246C114.574 33.863 115.334 33.4149 115.931 32.7804C116.527 32.1459 116.926 31.401 117.127 30.5458C117.322 29.6701 117.283 28.7499 117.01 27.7851C116.743 26.8409 116.289 26.0604 115.648 25.4436C115.029 24.8209 114.301 24.4061 113.467 24.199C112.647 23.9657 111.775 23.9798 110.851 24.2414C109.928 24.503 109.168 24.9511 108.571 25.5856C107.969 26.1996 107.567 26.9342 107.366 27.7894C107.165 28.6446 107.198 29.5443 107.466 30.4885C107.739 31.4532 108.188 32.2572 108.814 32.9004C109.434 33.523 110.164 33.9481 111.004 34.1757C111.845 34.4033 112.727 34.3862 113.651 34.1246Z" fill="#516682"/>
<path d="M125.043 34.0074L121.451 11.4435L124.295 10.9908L127.887 33.5547L125.043 34.0074Z" fill="#516682"/>
<path d="M138.764 32.4283L131.035 17.5972L134.231 17.4367L140.467 29.9718L138.613 30.0649L143.595 16.9666L146.663 16.8126L140.458 32.3432L138.764 32.4283Z" fill="#516682"/>
<path d="M156.442 33.1374C154.935 32.9858 153.611 32.5096 152.469 31.7086C151.33 30.8865 150.47 29.8458 149.889 28.5867C149.308 27.3276 149.093 25.9445 149.245 24.4374C149.394 22.9516 149.869 21.6485 150.667 20.5282C151.487 19.4099 152.515 18.5699 153.751 18.0081C155.01 17.4272 156.372 17.2104 157.837 17.3577C159.238 17.4986 160.437 17.9409 161.434 18.6844C162.452 19.4301 163.202 20.3953 163.683 21.5801C164.186 22.767 164.366 24.0715 164.222 25.4937C164.201 25.7059 164.167 25.9383 164.12 26.1909C164.075 26.4223 164.005 26.694 163.91 27.0059L151.142 25.7217L151.382 23.3338L162.621 24.4643L161.478 25.2819C161.58 24.2631 161.486 23.3853 161.196 22.6485C160.908 21.8905 160.454 21.2874 159.834 20.8391C159.217 20.3696 158.441 20.0879 157.507 19.994C156.531 19.8958 155.65 20.0216 154.864 20.3714C154.079 20.7212 153.446 21.2579 152.965 21.9814C152.485 22.705 152.193 23.5869 152.088 24.6269C151.982 25.6883 152.1 26.6436 152.443 27.4929C152.789 28.3209 153.332 28.9973 154.072 29.5221C154.815 30.0256 155.696 30.3286 156.715 30.4311C157.564 30.5165 158.353 30.4458 159.084 30.2191C159.835 29.9945 160.496 29.6107 161.065 29.0676L162.723 31.1319C161.916 31.9083 160.959 32.4661 159.853 32.8051C158.768 33.1462 157.631 33.257 156.442 33.1374Z" fill="#516682"/>
<path d="M166.054 34.0515L169.582 19.2666L172.384 19.9351L168.856 34.72L166.054 34.0515ZM170.869 26.2848L169.922 25.5654C170.372 23.6771 171.167 22.2766 172.306 21.364C173.445 20.4515 174.834 20.1908 176.473 20.582C177.22 20.7602 177.863 21.056 178.4 21.4694C178.942 21.862 179.401 22.4211 179.776 23.1466L177.487 24.6071C177.255 24.2008 176.969 23.8805 176.63 23.6461C176.292 23.4117 175.873 23.2351 175.375 23.1163C174.338 22.8687 173.408 22.9977 172.585 23.5033C171.763 24.0088 171.19 24.936 170.869 26.2848Z" fill="#516682"/>
<path d="M207.423 51.3568C206.254 50.5708 205.401 49.5849 204.862 48.3992C204.334 47.1958 204.13 45.9139 204.248 44.5535C204.384 43.2051 204.869 41.9114 205.703 40.6725C206.536 39.4335 207.552 38.4971 208.75 37.8633C209.966 37.2413 211.23 36.948 212.544 36.9833C213.857 37.0185 215.098 37.4292 216.266 38.2152C217.204 38.8465 217.917 39.6217 218.404 40.5409C218.903 41.4424 219.144 42.402 219.128 43.4196C219.141 44.4315 218.865 45.4155 218.299 46.3715L215.744 50.168C215.083 51.0349 214.285 51.6675 213.348 52.0658C212.412 52.4641 211.426 52.6108 210.391 52.5057C209.368 52.3829 208.378 52 207.423 51.3568ZM209.339 49.3682C210.136 49.9041 210.951 50.1828 211.785 50.2042C212.637 50.2374 213.446 50.0486 214.211 49.6377C214.988 49.2092 215.656 48.5789 216.216 47.7471C216.799 46.8798 217.129 46.0085 217.203 45.1331C217.296 44.2697 217.166 43.4496 216.815 42.673C216.481 41.9083 215.915 41.258 215.119 40.722C214.323 40.186 213.498 39.9014 212.646 39.8682C211.795 39.8349 210.971 40.0266 210.177 40.4433C209.412 40.8541 208.749 41.4755 208.189 42.3074C207.618 43.1569 207.28 44.0223 207.175 44.9034C207.101 45.7788 207.239 46.6048 207.591 47.3814C207.96 48.17 208.543 48.8322 209.339 49.3682ZM214.238 55.5577L211.822 53.9319L214.109 50.5337L216.633 47.7578L218.236 44.401L224.578 34.9762L226.994 36.6019L214.238 55.5577Z" fill="#516682"/>
<path d="M217.004 57.9244L227.191 46.6438L229.329 48.574L219.141 59.8547L217.004 57.9244ZM224.953 53.4188L224.468 52.3333C225.769 50.8926 227.138 50.045 228.575 49.7906C230.012 49.5361 231.356 49.9737 232.607 51.1033C233.177 51.618 233.598 52.1856 233.872 52.8061C234.159 53.4107 234.293 54.1214 234.275 54.938L231.565 55.1212C231.556 54.6534 231.46 54.2354 231.275 53.8672C231.09 53.499 230.807 53.1434 230.427 52.8002C229.636 52.0853 228.758 51.7524 227.794 51.8015C226.83 51.8506 225.883 52.3897 224.953 53.4188Z" fill="#516682"/>
<path d="M227.053 67.4227L238.259 57.1534L240.205 59.2767L228.999 69.546L227.053 67.4227ZM241.474 56.1612C241.113 55.7679 240.944 55.3302 240.965 54.848C241.001 54.3513 241.216 53.9228 241.61 53.5625C241.987 53.2165 242.417 53.0541 242.899 53.0752C243.397 53.0818 243.826 53.2817 244.187 53.6749C244.547 54.0681 244.709 54.513 244.672 55.0097C244.651 55.492 244.452 55.9061 244.074 56.252C243.681 56.6123 243.235 56.7892 242.737 56.7825C242.255 56.7615 241.834 56.5544 241.474 56.1612Z" fill="#516682"/>
<path d="M235.716 77.7206L243.798 63.0784L245.699 65.6524L238.704 77.7808L237.602 76.2879L251.27 73.1941L253.095 75.6651L236.724 79.0848L235.716 77.7206Z" fill="#516682"/>
<path d="M244.848 92.7773C244.141 91.4378 243.806 90.071 243.842 88.6769C243.897 87.2729 244.289 85.9808 245.016 84.8006C245.744 83.6203 246.778 82.6767 248.118 81.9698C249.438 81.2727 250.786 80.9473 252.162 80.9934C253.547 81.0584 254.815 81.4504 255.966 82.1695C257.147 82.8974 258.08 83.9123 258.767 85.2141C259.424 86.4593 259.719 87.703 259.651 88.945C259.593 90.206 259.203 91.3644 258.482 92.4205C257.771 93.4953 256.783 94.3664 255.519 95.0335C255.33 95.1331 255.118 95.2332 254.881 95.3338C254.664 95.4245 254.399 95.5162 254.086 95.609L248.097 84.2605L250.219 83.1403L255.492 93.1303L254.178 92.6296C255.084 92.1516 255.763 91.588 256.216 90.9386C256.689 90.2793 256.94 89.5676 256.971 88.8035C257.021 88.0295 256.827 87.2274 256.388 86.3972C255.93 85.5293 255.338 84.8648 254.613 84.4036C253.887 83.9424 253.09 83.7118 252.221 83.7118C251.353 83.7118 250.456 83.9558 249.532 84.4437C248.589 84.9416 247.858 85.5684 247.34 86.3241C246.841 87.0698 246.578 87.8963 246.55 88.8035C246.541 89.7007 246.776 90.6021 247.254 91.5077C247.652 92.2624 248.148 92.8814 248.74 93.3646C249.343 93.8666 250.028 94.2047 250.795 94.3787L249.992 96.9013C248.899 96.6581 247.905 96.1694 247.011 95.4352C246.127 94.7198 245.406 93.8339 244.848 92.7773Z" fill="#516682"/>
<path d="M253.109 111.718L261.487 108.824C262.576 108.447 263.355 107.795 263.824 106.865C264.293 105.936 264.339 104.927 263.963 103.838C263.712 103.112 263.328 102.522 262.81 102.069C262.292 101.616 261.696 101.326 261.019 101.198C260.343 101.071 259.642 101.132 258.917 101.383L259.165 100.045C260.254 99.6684 261.305 99.576 262.319 99.7673C263.334 99.9586 264.232 100.404 265.016 101.104C265.819 101.797 266.409 102.688 266.786 103.777C267.162 104.865 267.22 105.917 266.962 106.932C266.71 107.967 266.224 108.88 265.504 109.67C264.804 110.454 263.96 111.016 262.972 111.358L254.05 114.44L253.109 111.718ZM249.598 101.556L263.965 96.5919L264.905 99.3141L250.539 104.278L249.598 101.556Z" fill="#516682"/>
</svg>
